<?xml version="1.0" encoding="UTF-8"?>
<svg width="15px" height="18px" viewBox="0 0 15 18" version="1.1" xmlns="http://www.w3.org/2000/svg" xmlns:xlink="http://www.w3.org/1999/xlink">
    <!-- Generator: Sketch 41.2 (35397) - http://www.bohemiancoding.com/sketch -->
    <title>Page 1</title>
    <desc>Created with Sketch.</desc>
    <defs>
        <polygon id="path-1" points="14.9969837 0.112279282 0 0.112279282 0 17.3976023 14.9969837 17.3976023 14.9969837 0.112279282"></polygon>
    </defs>
    <g id="Page-1" stroke="none" stroke-width="1" fill="none" fill-rule="evenodd">
        <g id="Group-11">
            <g transform="translate(0.000000, 0.048810)">
                <mask id="mask-2" fill="white">
                    <use xlink:href="#path-1"></use>
                </mask>
                <g id="Clip-10"></g>
                <path d="M7.49861413,4.34952542 C9.26845109,4.34952542 10.708288,5.77210554 10.708288,7.52073052 C10.708288,8.46986902 10.3050815,9.14724977 9.96660326,9.54852336 C9.35372283,10.2751974 8.45421196,10.6920967 7.49861413,10.6920967 C5.72877717,10.6920967 4.28877717,9.2693555 4.28877717,7.52073052 C4.28877717,5.77210554 5.72877717,4.34952542 7.49861413,4.34952542 M13.2612228,12.2612681 C14.3805163,10.9340529 14.9969837,9.25050804 14.9969837,7.52073052 C14.9969837,3.4356655 11.6332337,0.112230956 7.49861413,0.112230956 C3.36383152,0.112230956 -8.15217392e-05,3.4356655 -8.15217392e-05,7.52073052 C-8.15217392e-05,10.1738722 1.40078804,12.4874376 3.54692935,13.813203 C5.69307065,15.1389684 9.37214674,17.0857333 9.37214674,17.0857333 C9.74404891,17.2970826 10.1498641,17.3976023 10.550462,17.3976023 C11.3699185,17.3976023 12.166712,16.9766758 12.6048098,16.2243885 C13.0429076,15.4721012 13.0086685,14.5804716 12.5963315,13.8803773 C11.4424728,14.6777696 10.0608424,15.116577 8.61921196,15.116577 C8.02638587,15.116577 7.45100543,15.0424759 6.90138587,14.903778 C7.09866848,14.9192425 7.29741848,14.9293912 7.49861413,14.9293912 C9.73084239,14.9293912 11.8313315,13.9568947 13.2612228,12.2612681" id="Fill-9" fill="#FF3700" mask="url(#mask-2)"></path>
            </g>
        </g>
    </g>
</svg>