<?xml version="1.0" encoding="UTF-8"?>
<svg width="290px" height="120px" viewBox="0 0 290 120" version="1.1" xmlns="http://www.w3.org/2000/svg" xmlns:xlink="http://www.w3.org/1999/xlink">
    <!-- Generator: Sketch 41.2 (35397) - http://www.bohemiancoding.com/sketch -->
    <title>Rectangle 1</title>
    <desc>Created with Sketch.</desc>
    <defs>
        <polygon id="path-1" points="57.8644953 0.433367876 0 0.433367876 0 67.1500725 57.8644953 67.1500725 57.8644953 0.433367876"></polygon>
    </defs>
    <g id="Page-1" stroke="none" stroke-width="1" fill="none" fill-rule="evenodd">
        <rect id="Rectangle-1" fill="#262626" x="0" y="0" width="289.380667" height="120"></rect>
        <g transform="translate(32.083509, 28.601036)">
            <path d="M95.4186197,29.0980104 C98.4936039,29.0980104 100.84954,27.7226736 100.84954,24.2271295 L100.84954,23.425057 C100.84954,19.814487 98.4936039,18.4391503 95.4186197,18.4391503 L86.0615588,18.4391503 L86.0615588,29.0980104 L95.4186197,29.0980104 Z M84.0327486,50.758943 L78.6024575,50.758943 C77.4896001,50.758943 76.5736474,49.9568705 76.5736474,48.9825699 L76.5736474,12.4223627 C76.5736474,11.4480622 77.4896001,10.6459896 78.6024575,10.6459896 L96.2037221,10.6459896 C104.25165,10.6459896 110.337451,14.6569741 110.337451,22.6795648 L110.337451,24.3987358 C110.337451,29.7284767 108.047569,33.625057 102.224098,35.4014301 L109.683199,47.8938653 C110.010325,48.4671295 110.337451,48.9253679 110.337451,49.4986321 C110.337451,50.2435026 109.747995,50.758943 108.897468,50.758943 L102.288894,50.758943 C101.176666,50.758943 100.522414,50.0718964 100.129863,49.3836062 L93.0633127,36.891171 L86.0615588,36.891171 L86.0615588,48.9825699 C86.0615588,49.9568705 85.145606,50.758943 84.0327486,50.758943 L84.0327486,50.758943 Z" id="Fill-1" fill="#FFFFFF"></path>
            <path d="M143.443984,18.4390881 L126.038366,18.4390881 L126.038366,26.5188808 L139.517843,26.5188808 C140.630071,26.5188808 141.546024,27.3215751 141.546024,28.2958756 L141.546024,32.5362902 C141.546024,33.5099689 140.630071,34.3126632 139.517843,34.3126632 L126.038366,34.3126632 L126.038366,42.9657202 L143.443984,42.9657202 C144.556212,42.9657202 145.472794,43.7105907 145.472794,44.6848912 L145.472794,48.9825078 C145.472794,49.9568083 144.556212,50.7588808 143.443984,50.7588808 L118.579264,50.7588808 C117.467036,50.7588808 116.550454,49.9568083 116.550454,48.9825078 L116.550454,12.4223005 C116.550454,11.448 117.467036,10.6459275 118.579264,10.6459275 L143.443984,10.6459275 C144.556212,10.6459275 145.472794,11.448 145.472794,12.4223005 L145.472794,16.662715 C145.472794,17.6370155 144.556212,18.4390881 143.443984,18.4390881" id="Fill-3" fill="#FFFFFF"></path>
            <path d="M172.820777,21.3042902 C172.165896,19.413513 170.792596,17.2933057 166.5387,17.2933057 C162.286062,17.2933057 159.668425,18.0953782 159.668425,21.2470881 C159.668425,28.5820104 183.028365,23.6539275 183.028365,39.4703005 C183.028365,48.2377617 174.718107,51.3322694 166.342424,51.3322694 C154.499206,51.3322694 149.264561,44.3983834 149.264561,39.0114404 C149.264561,38.0377617 150.181143,37.2350674 151.293371,37.2350674 L156.593441,37.2350674 C157.705669,37.2350674 158.295125,38.0949637 158.490772,38.7826321 C158.752473,39.8713368 159.341928,44.1117513 166.342424,44.1117513 C171.446218,44.1117513 173.540454,42.9080207 173.540454,39.4703005 C173.540454,31.5042902 150.181143,36.4901969 150.181143,21.2470881 C150.181143,14.5426321 155.415159,10.0727876 166.670179,10.0727876 C176.877139,10.0727876 182.308688,15.4019067 182.308688,21.1326839 C182.308688,22.1063627 181.392735,22.909057 180.279878,22.909057 L174.914383,22.909057 C173.802154,22.909057 173.147903,22.3929948 172.820777,21.3042902" id="Fill-5" fill="#FFFFFF"></path>
            <path d="M210.24663,42.7365389 L205.862513,39.4704249 C205.404536,39.1259689 205.142836,38.6105285 205.142836,38.0950881 C205.142836,37.6934301 205.338482,37.2923938 205.600812,37.0063834 L207.040166,35.4588187 C207.628993,34.8283523 208.152395,34.5417202 208.741221,34.5417202 C209.264623,34.5417202 209.854079,34.7711503 210.24663,35.0577824 L214.499268,38.1522902 C214.891819,37.1207876 215.088094,35.917057 215.088094,34.5417202 L215.088094,26.9201658 C215.088094,21.0177824 211.097157,17.8660725 206.320489,17.8660725 C201.543821,17.8660725 197.683734,21.0177824 197.683734,26.9201658 L197.683734,34.5417202 C197.683734,40.4441036 201.543821,43.5386114 206.320489,43.5386114 C207.759843,43.5386114 209.068347,43.2519793 210.24663,42.7365389 M225.622809,47.0341554 C225.622809,47.4930155 225.426533,47.9512539 225.099407,48.2950881 L223.332927,50.1286632 C222.940376,50.5296995 222.48177,50.7591295 221.828147,50.7591295 C221.369542,50.7591295 220.97762,50.6441036 220.585069,50.3580933 L217.574881,48.1228601 C214.499268,50.1858653 210.638552,51.3323938 206.320489,51.3323938 C195.8512,51.3323938 188.195823,44.570114 188.195823,34.5417202 L188.195823,26.8057617 C188.195823,16.7773679 195.8512,10.0722902 206.320489,10.0722902 C216.789778,10.0722902 224.576006,16.7773679 224.576006,26.8057617 L224.576006,34.5417202 C224.576006,38.0372642 223.660053,41.0745699 221.958369,43.6530155 L224.968557,45.8310466 C225.426533,46.1748808 225.622809,46.5759171 225.622809,47.0341554" id="Fill-7" fill="#FFFFFF"></path>
            <g id="Group-11" transform="translate(0.000000, 0.188394)">
                <mask id="mask-2" fill="white">
                    <use xlink:href="#path-1"></use>
                </mask>
                <g id="Clip-10"></g>
                <path d="M28.9327195,16.788 C35.7614741,16.788 41.3169538,22.2787772 41.3169538,29.028 C41.3169538,32.6914197 39.7612182,35.3059275 38.4552307,36.8547358 C36.0904874,39.6595026 32.6198066,41.2686218 28.9327195,41.2686218 C22.1039648,41.2686218 16.547856,35.7772228 16.547856,29.028 C16.547856,22.2787772 22.1039648,16.788 28.9327195,16.788 M51.1672201,47.3252021 C55.485912,42.2025078 57.8644953,35.7044767 57.8644953,29.028 C57.8644953,13.2607461 44.8857724,0.433181347 28.9327195,0.433181347 C12.9790375,0.433181347 -0.000314544203,13.2607461 -0.000314544203,29.028 C-0.000314544203,39.2684145 5.40481305,48.1981554 13.6855037,53.3152539 C21.9661944,58.4323523 36.1615743,65.946342 36.1615743,65.946342 C37.596525,66.7620933 39.162326,67.1500725 40.7079963,67.1500725 C43.8697946,67.1500725 46.9441496,65.5254093 48.6345102,62.6217824 C50.3248707,59.7181554 50.1927622,56.2767047 48.6017976,53.5745285 C44.1497389,56.6522487 38.8188438,58.3459275 33.2564441,58.3459275 C30.9690786,58.3459275 28.7490256,58.0599171 26.6283686,57.5245803 C27.3895656,57.5842694 28.1564244,57.6234404 28.9327195,57.6234404 C37.5455688,57.6234404 45.6501148,53.8698653 51.1672201,47.3252021" id="Fill-9" fill="#FF3700" mask="url(#mask-2)"></path>
            </g>
        </g>
    </g>
</svg>